<svg xmlns="http://www.w3.org/2000/svg" xmlns:xlink="http://www.w3.org/1999/xlink" version="1.1"
    x="0px" y="0px" viewBox="0 0 90 115" transform="scale(-1, 1) translate(-5, 3)" fill='#3A5B22'>
    <path
        d="M97.1981812,60.0545654c-0.0186768-0.0570068-0.038269-0.114502-0.0584106-0.1714478  c-0.5004272-1.3973389-1.5352173-2.5480347-2.4814453-3.4899902c-6.09552-6.0643311-14.8482056-10.1174927-26.7585449-12.3901978  l-0.0646973-0.0124512c-0.9854736-0.1876831-2.0040283-0.3816528-2.8329468-0.9376221  c-0.7939453-0.532959-1.4466553-1.5874023-1.1564331-2.5719604c0.1829224-0.6206055,0.7283325-1.1646118,1.49646-1.4921265  c1.4346313-0.6129761,3.2758789-0.4056396,5.0496216,0.5679321c1.135376,0.6234741,2.1481934,1.4753418,3.1279297,2.2994995  c0.3553467,0.2993164,0.7230835,0.6086426,1.0918579,0.9031372c2.8065796,2.2406006,6.109314,3.968811,9.3029175,5.640564  c5.0491333,2.642395,10.2697144,5.3747559,13.4072876,10.1433105c0.0162354,0.0249023,0.0483398,0.0344849,0.074707,0.0230103  c0.0272827-0.0114746,0.0426025-0.0402222,0.036377-0.069458c-0.366333-1.7282104-0.3222656-3.5790405-0.2801514-5.3690186  c0.0651245-2.7467651,0.1322021-5.5869141-1.3231201-7.9262085c-1.0276489-1.651123-2.7050781-2.8118896-4.2106323-3.7293701  c-6.725708-4.1019897-14.7371216-6.3464355-22.619751-6.3464355c-0.1752319,0-0.3514404,0.0009766-0.5267334,0.0033569  c-0.6933594,0.008606-1.4016113,0.0344849-2.0869141,0.0588989c-2.4263916,0.0866699-4.9337158,0.1771851-7.2959595-0.454895  c-0.4927368-0.1317139-1.6425171-0.5358887-1.6722412-1.4332886c-0.0133667-0.4012451,0.2097778-0.8078003,0.6819458-1.243103  c2.6514893-2.442688,6.7979736-1.9087524,9.6855469-1.2943726c9.6074829,2.0442505,18.6039429,6.3262939,27.3039551,10.467041  c0.0239258,0.0109863,0.0507812,0.0062256,0.069458-0.0119629c0.0181885-0.0181885,0.0234375-0.0455322,0.0124512-0.0689697  l-4.6488647-10.184021c-0.3945923-0.8648682-0.8418579-1.8455811-1.5826416-2.5562134  c-1.2800293-1.2282715-3.1600342-1.4715576-4.9758911-1.6152344c-8.8657227-0.7019653-17.8435059-0.5645752-26.6828613,0.40802  c-0.635498,0.0698853-1.354248,0.1494141-1.9714966-0.1043701c-0.5919189-0.2442627-1.0755615-0.9165649-0.8529053-1.5285645  c0.0847778-0.2313232,0.2681885-0.4477539,0.560791-0.6603394c1.5007324-1.0927734,3.4856567-0.8088379,5.4053955-0.5344238  c0.2858887,0.0407104,0.5689087,0.0814209,0.8480835,0.1168213c3.0987549,0.3936157,6.3244019,0.0440674,9.4451904-0.2940063  c4.5262451-0.4898682,9.2071533-0.9970093,13.3756714,0.8418579c0.0267944,0.010498,0.055542,0.0038452,0.0727539-0.0177612  c0.0172729-0.0215454,0.0181885-0.0516968,0.0019531-0.0742188c-2.9498291-4.0564575-5.9570923-7.7949829-10.2927856-8.973938  c-4.0918579-1.1123657-8.4595947,0.3845215-11.9702148,1.5874634l-12.7277222,4.3595581  c-0.4640503,0.1585083-1.2872314,0.3476562-1.5951538-0.1699829c-0.1397705-0.2369995-0.1038818-0.5444336-0.0641479-0.7546997  c0.5128784-2.7223511,3.786377-3.9525146,6.6389771-3.9525146c0.0234985,0,0.046936,0.0004272,0.0699463,0.0004272  c0.7786255,0.0053101,1.5812378,0.0627441,2.3579102,0.1178589c2.0706177,0.149353,4.2120972,0.3002319,6.1347656-0.508606  c0.0181885-0.0076294,0.0316162-0.0239258,0.0359497-0.0430908c0.0042725-0.0195923-0.0009766-0.0397339-0.0144043-0.0545654  c-3.5268555-3.883606-10.059021-4.7402954-14.8711548-1.9504395c-0.2289429,0.1326294-0.4578247,0.2749023-0.6795044,0.4118042  c-0.6550903,0.4065552-1.3331909,0.8265381-2.076355,1.0496826c-1.065979,0.3213501-2.2114258,0.2236328-3.3204956,0.1288452  c-1.0549316-0.0890503-2.1453247-0.1815186-3.1810913,0.0789795c-2.9047852,0.7312622-4.4596558,4.1067505-4.2849121,6.947876  c0.1843872,2.9943848,1.7589111,5.723877,3.1480713,8.1316528c0.0110474,0.019104,0.0311279,0.0306396,0.0531616,0.0306396  c0.0009766,0,0.0023804,0,0.0038452,0c0.0229492-0.0014648,0.0435791-0.0158081,0.0526733-0.0373535  c1.835022-4.2983398,4.4381104-8.2987671,7.6201782-11.7379761c-3.2064819,3.7092896-5.725769,8.0167236-7.3702393,12.6343994  c-0.0071411,0.0210571-0.0028687,0.0445557,0.0119629,0.0612793c0.0148926,0.0167847,0.0369263,0.0234985,0.0593872,0.019165  c2.5155029-0.5593262,4.6311035-2.1668701,6.6773071-3.7217407c0.4152222-0.3150635,0.8442383-0.6416626,1.2680664-0.9519653  c5.0108643-3.6700439,10.9612427-6.1989136,17.1295166-7.3252563c-9.4140625,2.0993652-17.7290649,7.9937134-23.4596558,12.5352783  c-0.0134277,0.0110474-0.0220337,0.0273438-0.0230103,0.0445557c-0.0009155,0.0177002,0.0057983,0.0349731,0.0186768,0.0474243  c1.074585,1.0477295,2.8382568,1.4581299,4.7149658,1.0999146c1.2885742-0.246582,2.5092163-0.7910767,3.6896362-1.3178101  c0.3241577-0.1445923,0.6473999-0.2887573,0.9725952-0.427124c6.5360107-2.7855835,11.7149658-4.0062256,17.2597656-4.0062256  c0.0626831,0,0.124939,0,0.1881714,0.0004883c-6.4345093,0.3500366-13.6879272,2.5202637-22.0853271,6.5997314  c-0.0224609,0.0109863-0.0358887,0.0344849-0.0344238,0.0593872c0.0018921,0.0253906,0.0186768,0.0464478,0.0426025,0.0540771  c0.8897095,0.2816162,1.7387695,0.7437134,2.5595093,1.1900024c1.2081909,0.6569824,2.4575806,1.3364868,3.8453369,1.4418945  c0.9107666,0.0679932,1.8234863-0.1173706,2.7060547-0.2974243c0.1465454-0.0296631,0.2926025-0.0598145,0.4386597-0.0880737  c8.468689-1.663147,17.1213379,0.5473022,25.406189,3.7102051c-8.7684937-3.0895996-18.4396973-5.2411499-27.4423218-2.6011963  c-0.0249023,0.0072021-0.0426636,0.0292358-0.0440674,0.0551147c-0.0014648,0.0258179,0.0133667,0.0498047,0.0368652,0.0603027  c3.4732056,1.4926147,6.6088257,3.5843506,9.3201294,6.2175903c0.0819092,0.0800171,0.1643066,0.1604614,0.2461548,0.2409058  c0.6727905,0.6598511,1.368103,1.3427124,2.234375,1.7387695c0.7518311,0.3452148,1.5889282,0.4525146,2.3981934,0.5568848  l0.2116699,0.0272827c6.4397583,0.8442383,12.5802612,3.1404419,17.9718018,6.6954956  c-5.8895874-3.6154175-12.7167358-5.7674561-19.6043091-6.1337891c-0.0205688,0.0038452-0.046875,0.0120239-0.0579224,0.0335693  c-0.0109863,0.0215454-0.0081177,0.0478516,0.0072021,0.0665283l13.1826782,16.1502686L65.1079712,49.7225342  c-0.0153198-0.019165-0.0426025-0.0258789-0.0656128-0.0177002c-0.0234375,0.0076294-0.0397339,0.0291748-0.041626,0.0540771  c-0.5349121,8.1445312,1.0673828,16.4609985,4.5444336,23.8599854c-3.3257446-6.62323-5.1434937-14.0939941-5.177063-21.4666138  l-0.0004272-0.1876831c-0.0038452-1.1066895-0.0072021-2.2506714-0.4995117-3.2457886  c-0.3514404-0.7111206-0.9232178-1.2790527-1.4782104-1.7995605c-2.3411865-2.1984863-4.9505615-4.1077271-7.7567139-5.6750488  c-0.0177002-0.0105591-0.0392456-0.0105591-0.0569458-0.0009766c-0.0181885,0.0090942-0.0306396,0.0263672-0.0335693,0.0464478  c-0.890686,6.7208862-0.6177368,13.5552979,0.8112183,20.3135376c1.1057129,5.2306519,2.8626709,10.2227783,5.2388306,14.8945923  C54.6825562,65.6270752,52.2020874,53.1004639,53.5840454,40.75c0.0028687-0.0267944-0.0119629-0.0521851-0.0368652-0.0631714  l-8.1206055-3.4827881c-0.0253906-0.0110474-0.0565186-0.0024414-0.0737305,0.0205688  c-5.6582642,7.8189087-7.8979492,18.0254517-6.2171021,27.5228271c-1.9528198-9.4327393-0.1254883-19.7426758,5.1004028-27.8082275  c0.0148315-0.0230103,0.0129395-0.0521851-0.0043335-0.0733032c-1.4078369-1.6693115-3.7418823-1.9537354-5.4537964-1.6625977  c-1.9470825,0.3299561-3.7337036,1.3470459-5.3972778,2.3608398c-5.0061035,3.0508423-11.6647339,7.708252-15.0311279,14.4071045  c1.4887695-3.2629395,3.8605957-6.4158325,6.9852295-9.2602539c3.6968384-3.3649902,8.0147705-5.9973145,12.4844971-8.6196289  c0.0210571-0.0119629,0.0325317-0.0358887,0.0296631-0.0603027c-0.0028687-0.0239868-0.0200806-0.0440674-0.0435791-0.0512695  c-12.3585815-3.6522827-19.1752319-0.9706421-27.3226318,3.9372559c11.380249-7.6431885,18.2184448-6.522644,22.3822021-5.8388062  l0.1977539,0.0320435c0.0301514,0.0038452,0.0579224-0.0114746,0.0675049-0.0397339  c0.0100708-0.027771-0.0009155-0.0584106-0.0267944-0.0737305c-1.3015747-0.7589722-2.520752-1.826416-3.7001953-2.8588257  c-1.6817627-1.4725342-3.4205322-2.994812-5.4586182-3.6896362c-1.5663452-0.5344238-3.2667847-0.4707642-4.7244873-0.3376465  c-4.7216187,0.4314575-9.4221191,1.8518066-13.5930786,4.105835c-1.0367432,0.56073-2.0797119,1.2163086-2.6845093,2.2080078  c-0.5928345,0.9740601-0.6636963,2.4675903,0.2442017,3.281189c0.0211182,0.019165,0.0536499,0.0215454,0.0775757,0.0033569  c5.6410522-4.2302856,10.4378662-5.5414429,14.2577515-3.8984375c-3.541687,1.729187-7.2217407,3.2582397-10.9401245,4.5458984  c-0.9180298,0.3179321-1.9581299,0.6785278-2.5796509,1.4873657c-0.9591675,1.24646-0.5737305,3.0326538-0.2001953,4.2681274  c1.1272583,3.7260132,3.022583,7.2892456,5.4815674,10.3056641c0.013916,0.0177002,0.0368652,0.0253906,0.0598755,0.0210571  c0.022522-0.0043335,0.0402222-0.0210571,0.0464478-0.0430908c0.9763794-3.4516602,2.317688-7.4272461,4.8624268-10.7409668  c2.6567383-3.4593506,6.270752-5.5620117,9.914917-5.7689209c0.973999-0.0579224,2.2975464,0.2183838,3.041748,0.9567871  c0.3706055,0.3673096,0.5463867,0.8001709,0.5228882,1.2876587c-0.0574341,1.1986084-1.3048706,1.9083252-2.4694824,2.4796143  c-2.6079102,1.2790527-5.0664062,2.8650513-7.3065186,4.7139282c-2.8919067,2.3866577-4.6033936,4.6363525-5.3862915,7.0791016  c-1.4993286,4.6765747,0.7005615,9.3991699,2.1453247,11.7977905c1.3164062,2.1845703,2.9650879,4.1876831,4.5592651,6.1246948  c0.9749756,1.1851807,1.9834595,2.4101562,2.9057617,3.6647339c0.0148315,0.0206299,0.0426025,0.0311279,0.0684814,0.0215454  c0.0253906-0.0081177,0.0421143-0.0315552,0.0421143-0.0584106c-0.0435791-6.0442505,0.1771851-12.4734497,2.0720825-18.5359497  c2.0634155-6.6016235,5.9364624-11.8063965,10.9057007-14.6551514c0.6090698-0.3500977,2.1242065-1.0708008,3.0148926-0.2289429  c0.7432251,0.7030029,0.4783936,1.9058838,0.1206665,2.989563c-2.5250244,7.6522827-3.4229126,15.9347534-2.5973511,23.9509888  c0.2418213,2.3497925,0.6732788,5.0558472,2.0390015,7.3108521c1.7962646,2.967041,4.894043,4.7349854,7.8903198,6.444519  c1.9135132,1.0918579,3.8922119,2.2210083,5.543335,3.6595459c0.0181885,0.0153198,0.0444946,0.019104,0.06604,0.0090942  c0.0220337-0.0105591,0.0359497-0.0325928,0.0354614-0.0570068c-0.1369629-5.7871094-1.835022-11.4621582-3.4770508-16.9499512  c-1.6410522-5.4849243-3.3377075-11.1561279-3.4717407-16.9317017c-0.0282593-1.2196655,0.0263062-2.4953613,0.6081543-3.5623169  c0.538208-0.9869385,1.7612305-1.8532104,2.9737549-1.5237427c1.2733154,0.3500366,2.0040283,1.7526245,2.1706543,4.1694946  c0.1508789,2.1773682,0.2356567,4.3978882,0.3179932,6.545105c0.1585083,4.1575317,0.3227539,8.4562988,0.9725952,12.6358643  c1.1535645,7.4286499,3.7461548,13.2559814,7.7049561,17.3196411c0.499939,0.5133057,1.0554199,1.0228271,1.7325439,1.2752075  c0.4544067,0.1694946,0.9404907,0.2154541,1.4159546,0.2154541c0.296936,0,0.5894775-0.0181885,0.8677368-0.0349121  l9.6673584-0.5899658c0.0229492-0.0014648,0.0435791-0.0158081,0.0526733-0.0373535s0.005249-0.0464478-0.0100708-0.0637207  c-5.9317017-6.8927612-13.2324829-17.8612061-14.3276978-30.9720459c-0.1326294-1.5822144,0.2059326-3.383667,1.5548706-3.6925659  c0.9515381-0.2183838,1.8915405,0.5229492,2.2871094,1.3331909c0.4050903,0.8293457,0.4458008,1.7890015,0.4855347,2.717041  l0.0057373,0.1350708c0.3151245,7.2322998,2.1324463,14.5072632,5.2546387,21.0380249  c1.149292,2.4038696,2.6619873,5.0630493,5.168396,6.5585327c2.3239136,1.3862915,5.9465332,1.4456787,7.7480469-0.8796997  c0.0205688-0.0263062,0.0158081-0.0646362-0.0105591-0.0852051c-5.2593994-4.15802-8.843689-10.3458862-9.8325195-16.9777222  c-0.1034546-0.6929321,0.0291748-1.6688232,0.4779053-2.1118164c0.1948853-0.1915283,0.4314575-0.2662354,0.7010498-0.2226562  c0.3079224,0.0507812,0.5631104,0.2710571,0.7929688,0.5013428c1.8834229,1.8901367,2.789917,4.5258179,3.6661987,7.0743408  c0.9309692,2.7050781,1.8930054,5.5026245,4.0263062,7.4017944c2.5456543,2.2655029,6.5288696,2.6644287,9.6865234,0.973999  c0.0957642-0.0512085,0.1982422-0.0991211,0.3026123-0.1479492c0.2858887-0.133606,0.5813599-0.2719727,0.7920532-0.4942017  c0.3031616-0.3198853,0.4194946-0.8068848,0.5219727-1.2368774c0.0287476-0.1206665,0.0565186-0.2380371,0.0876465-0.3476562  l1.3096924-4.6296997c0.171936-0.6086426,0.3668213-1.2987061,0.2504272-1.975769  c-0.1608887-0.9347534-0.8547363-1.6434937-1.6132812-2.3469238c-3.5665894-3.3075562-7.3179932-6.5083008-11.1499023-9.5131836  c-0.4539795-0.3557739-0.96875-0.7584839-1.1918945-1.3226318c-0.1254883-0.3174438-0.1168213-0.7044067,0.0220337-1.0094604  c0.0727539-0.1594238,0.2150269-0.3687134,0.4797974-0.4620972c0.3653564-0.1278687,0.7580566,0.0144043,1.1636353,0.1829224  c3.1011353,1.2963257,6.0960083,2.6237183,8.6445312,4.6086426c2.8760376,2.2401123,4.7469482,5.0812378,5.2684326,8.0008545  c0.0048218,0.0258789,0.0258789,0.0464478,0.0522461,0.0498047c0.0258179,0.0048218,0.0526733-0.0100098,0.0636597-0.0349121  C96.8869629,65.6716309,98.0755005,62.7615356,97.1981812,60.0545654z" />
</svg>