<svg xmlns="http://www.w3.org/2000/svg" width="40"
    height="40"
    viewBox="0 0 5 5" fill='#c7c7c7'>
    <path
        d="M2.51794,3.7828a.901.901,0,0,1-.83126.36754s.197.20487.88393.14739A1.21,1.21,0,0,0,3.61283,3.4593c.13391.15575.26456.314.3901.47521.06774.08636.13237.17455.1945.26348l.045.06723.04242.06772c.01263.02257.02673.04537.0374.06747L4.3307,4.417l.007.01575.00556.01406.00173.00508.00029.00106.0001.00026L4.34508,4.452l-.0009-.00606a.086.086,0,0,0,.17112-.018l-.00188-.01116-.00088-.00369-.00063-.00223L4.50927,4.402,4.504,4.3875l-.01041-.02422-.01059-.02186-.011-.02012c-.01445-.02724-.03027-.05107-.04554-.07627l-.048-.07145-.04962-.06912c-.06757-.09038-.13678-.17857-.20845-.26411Q3.9149,3.59341,3.698,3.359c.20835-.03905.86246-.2121.88475-.84828A1.65281,1.65281,0,0,0,3.56777.98374s.1685.74008-.26781.67329c-.42125-.06448.065-.68668-.33468-1.02344A1.26194,1.26194,0,0,0,2.08189.50532s.32772.775-.01253.9184-.212-.74-.48007-.7516A.75556.75556,0,0,0,1.18956.7407s.46917.49633.187.53029c-.32307.03888-.18813-.33974-.445-.35309a.58124.58124,0,0,0-.51537.20784h0a1.8445,1.8445,0,0,1,.06974.536c-.01328.34722.03881.60853.19277.64248s1.19972-.1866.97734.06826a1.07683,1.07683,0,0,1-.99376.19491s-.0025.48833.212.63534.53668-.02009.83925-.14332.46134.08271.17682.16718-.53505.44873-.903.2869a.83775.83775,0,0,0,.40582.37826c.29041.12575.53286-.07325.81632-.19595S2.62726,3.58848,2.51794,3.7828Zm.34467.15343c-.05735-.09308.12241-.29316.181-.22653C3.123,3.8,2.905,4.00507,2.86262,3.93623ZM4.24673,2.68246c.0409.09448-.46707.3956-.41563.18377S4.20584,2.588,4.24673,2.68246ZM3.96885,1.6383c.03555-.09663.12733.067.03249.47724-.10236.44277-.32955.52563-.388.489s-.09877-.112.04931-.28827A2.61935,2.61935,0,0,0,3.96885,1.6383ZM.822,1.55947a1.55844,1.55844,0,0,0,.425.17235c.14328.0151.15492.06655.142.10837s-.1557.1031-.38655-.0518C.78858,1.64488.7653,1.5314.822,1.55947Zm1.27081,1.9303a4.01175,4.01175,0,0,1-.40253.10582,4.00582,4.00582,0,0,0,.398-.11942q.19572-.06948.38361-.15761A3.23083,3.23083,0,0,0,2.832,3.1161,2.04923,2.04923,0,0,0,3.138,2.86334L3.087,2.8124c-.1542-.15153-.31363-.29784-.47954-.4364-.05642.0352-.11193.07174-.16911.10552l-.08877.05038L2.3052,2.557l-.04547.02315-.09089.04624c-.03064.0147-.06182.0283-.09268.04249L2.02977,2.69c-.01548.007-.03144.01288-.04713.01938l-.09449.038A3.23366,3.23366,0,0,1,1.4991,2.866a2.08856,2.08856,0,0,1-.40142.05769,2.08173,2.08173,0,0,0,.39793-.07159,3.21215,3.21215,0,0,0,.38194-.13136l.09227-.041c.0153-.007.03086-.01337.04594-.02081l.04518-.02248c.03-.01513.06036-.02964.09012-.04524l.0882-.04888.04407-.02442.043-.02635.0858-.05279c.05055-.03233.09967-.06688.14927-.10056-.08385-.06879-.16916-.13581-.25651-.20025q-.11616-.08687-.23624-.16844l-.00143.0007a1.22442,1.22442,0,0,1-.224.07372,1.99722,1.99722,0,0,1-.23027.0354c-.07712.007-.15435.0102-.23147.01049-.07711,0-.15419-.00237-.23084-.0092.0769.00206.15379-.00032.23036-.00513.07657-.005.15285-.013.22841-.02461a1.96292,1.96292,0,0,0,.2231-.0486,1.22143,1.22143,0,0,0,.1813-.06977c-.04458-.02975-.0894-.05916-.13469-.08784q-.21779-.13965-.44646-.26174c-.15175-.0824-.30724-.1579-.46489-.22894a4.87463,4.87463,0,0,0-.4839-.18772A4.03833,4.03833,0,0,1,.979,1.32675c.1623.06225.32114.13352.47714.21057q.13326.06616.26323.13888a.60848.60848,0,0,0,.01791-.14726,1.05847,1.05847,0,0,0-.01482-.17138,1.61373,1.61373,0,0,0-.03707-.16995c-.01533-.0561-.03258-.11187-.05333-.16644.02516.05272.047.10706.067.16213a1.63517,1.63517,0,0,1,.0515.16854,1.09406,1.09406,0,0,1,.0297.17542.63544.63544,0,0,1-.00947.17788c.048.0273.09572.055.143.08353q.22311.13589.43542.28888.0558.04079.11084.0827a1.62613,1.62613,0,0,0,.09016-.299l.016-.08543.01215-.08622c.00448-.02871.0069-.0577.00979-.08664s.00614-.05788.00758-.087c.009-.11615.01086-.23293.00956-.34966Q2.60289.99123,2.58788.8163q.02219.174.03169.34958c.00609.11694.009.23426.00475.35163-.00026.02937-.00248.05867-.00406.088s-.003.05872-.00632.088l-.00875.0879-.01268.0876a1.64607,1.64607,0,0,1-.08627.327,5.76593,5.76593,0,0,1,.50567.43766c.03507-.03044.07035-.06072.10473-.092l.06292-.06112c.021-.02033.04227-.04052.06162-.06247l.05954-.06453c.02035-.02112.03773-.04471.05677-.067.03838-.04436.07238-.092.10727-.13919a2.11,2.11,0,0,0,.178-.30326c.01221-.02671.02513-.05317.03562-.08064L3.695,1.72261,3.70971,1.681a1.04151,1.04151,0,0,0,.04517-.17061,1.04515,1.04515,0,0,1-.03835.1728l-.01311.04239-.015.04176c-.00944.02809-.02134.05519-.03255.08261a2.13163,2.13163,0,0,1-.16733.31348c-.03333.04909-.0659.09888-.10292.14537-.01836.02333-.03513.048-.05485.07027L3.273,2.447c-.0188.02312-.03947.04446-.06.066l-.06147.06473c-.03265.0322-.0662.06352-.09966.095q.0439.04394.08672.089c.0299.03171.06.06323.08878.09594.03015.03368.057.06708.08475.10073.01838.02231.03642.04484.05453.06733a.6194.6194,0,0,0,.07543-.03392.86649.86649,0,0,0,.10524-.06636,1.13158,1.13158,0,0,0,.09705-.08008,1.05588,1.05588,0,0,0,.088-.09112,1.06184,1.06184,0,0,1-.07765.10108,1.15343,1.15343,0,0,1-.08914.09226.90243.90243,0,0,1-.10117.081.65242.65242,0,0,1-.06408.03885l.07455.09417c.10724.13636.213.274.314.4152l-.0009.00542-.00516-.00057q-.17395-.19357-.34565-.38859l-.08084-.09141a.75814.75814,0,0,1-.06884.133,1.16241,1.16241,0,0,1-.10951.138,1.64755,1.64755,0,0,1-.26348.22688,1.57789,1.57789,0,0,0,.12763-.11667,1.55373,1.55373,0,0,0,.114-.12882,1.12746,1.12746,0,0,0,.09448-.14158.69145.69145,0,0,0,.05812-.144.02871.02871,0,0,1,.00379-.01636L3.26507,2.9985c-.02872-.03206-.05741-.06524-.08655-.09477l-.0002-.0002a2.09756,2.09756,0,0,1-.32306.24875,3.2659,3.2659,0,0,1-.37149.19239Q2.29172,3.42689,2.09281,3.48977Zm.18955-.51826c-.0071-.15432.38553-.34708.41419-.22859C2.73539,2.90355,2.28761,3.08566,2.28236,2.9715Zm-.39806-.64367c.03394-.154.32382-.04732.28827.0493C2.12451,2.50777,1.85925,2.4414,1.88429,2.32784Zm.89734-.22277c-.10374-.0928.05569-.31495.152-.24983C3.0643,1.94351,2.85836,2.17371,2.78163,2.10506Z" />
</svg>