<svg xmlns="http://www.w3.org/2000/svg" version="1.1" viewBox="5.0 30.0 90.0 40.0" fill='#fff'>
    <path
        d="m34.906 35.848h30.188c1.043 0 1.8867 1.043 1.8867 1.8867v1.8867c0 1.043-0.84375 1.8867-1.8867 1.8867h-30.188c-1.043 0-1.8867-1.043-1.8867-1.8867v-1.8867c0-1.043 0.84375-1.8867 1.8867-1.8867z" />
    <path
        d="m34.906 47.168h18.867c1.043 0 1.8867 1.043 1.8867 1.8867v1.8867c0 1.043-0.84375 1.8867-1.8867 1.8867h-18.867c-1.043 0-1.8867-1.043-1.8867-1.8867v-1.8867c0-1.043 0.84375-1.8867 1.8867-1.8867z" />
    <path
        d="m34.906 58.492h7.5469c1.043 0 1.8867 1.043 1.8867 1.8867v1.8867c0 1.043-0.84375 1.8867-1.8867 1.8867h-7.5469c-1.043 0-1.8867-1.043-1.8867-1.8867v-1.8867c0-1.043 0.84375-1.8867 1.8867-1.8867z" />
</svg>